# xmcd
#
# Track frame offsets:
#	150
#	14415
#	23277
#	34479
#	47533
#	60631
#	77240
#	89164
#	101499
#	114092
#	127368
#	140905
#	155543
#	171210
#	183520
#	194725
#	212165
#	222994
#	235407
#	248759
#	265332
#	277207
#
# Disc length: 3883 seconds
#
# Revision: 0
# Processed by: cddbd v1.5.2PL0 Copyright (c) Steve Scherf et al.
# Submitted via: EZCDAudioConverter 7.1.0.1
#
DISCID=530f2916
DTITLE=Nu Urban Traxx Volume 266 US
DYEAR=2019
DGENRE=blues
TTITLE0=City Girls - JT First Day Out
TTITLE1=Lil Tecca - Did It Again
TTITLE2=NLE Choppa - Camelot
TTITLE3=Fabolous ft. Jeremih and Davido - Choosy
TTITLE4=Internet Money ft. Lil Tecca and A Boogie Wit Da Hoodie - Somebody
TTITLE5=Yella Beezy ft. Chris Brown - Restroom Occupied
TTITLE6=A Boogie Wit Da Hoodie - Mood Swings
TTITLE7=Jacquees ft. Young Thug and Gunna - Verify
TTITLE8=Fredo Bang ft. Kevin Gates - Oouuh [Remix]
TTITLE9=Blueface ft. Jeremih - Close Up
TTITLE10=Earthgang - Bank
TTITLE11=Young Thug ft. Gunna - Hot
TTITLE12=YK Osiris ft. Kehlani - Ride
TTITLE13=Lil Durk - Bora Bora
TTITLE14=Peewee Longway and Money Man - Ooowwweee
TTITLE15=Burna Boy - Ye
TTITLE16=Summer Walker - Playing Games
TTITLE17=Tank - I Don't Think You're Ready
TTITLE18=YBN Cordae Ft. Anderson .Paak - RNP
TTITLE19=Yo Trane - Moonlight
TTITLE20=Lizzo - Good As Hell
TTITLE21=Mary J. Blige - Know
EXTD=
EXTT0=
EXTT1=
EXTT2=
EXTT3=
EXTT4=
EXTT5=
EXTT6=
EXTT7=
EXTT8=
EXTT9=
EXTT10=
EXTT11=
EXTT12=
EXTT13=
EXTT14=
EXTT15=
EXTT16=
EXTT17=
EXTT18=
EXTT19=
EXTT20=
EXTT21=
PLAYORDER=
